<?xml version="1.0" encoding="UTF-8" standalone="no"?>
<!-- Created with Inkscape (http://www.inkscape.org/) -->
<svg
   xmlns:dc="http://purl.org/dc/elements/1.1/"
   xmlns:cc="http://creativecommons.org/ns#"
   xmlns:rdf="http://www.w3.org/1999/02/22-rdf-syntax-ns#"
   xmlns:svg="http://www.w3.org/2000/svg"
   xmlns="http://www.w3.org/2000/svg"
   xmlns:sodipodi="http://sodipodi.sourceforge.net/DTD/sodipodi-0.dtd"
   xmlns:inkscape="http://www.inkscape.org/namespaces/inkscape"
   width="744.09448819"
   height="1052.3622047"
   id="svg3602"
   sodipodi:version="0.32"
   inkscape:version="0.46"
   sodipodi:docname="grenade.svg"
   inkscape:output_extension="org.inkscape.output.svg.inkscape">
  <defs
     id="defs3604">
    <inkscape:perspective
       sodipodi:type="inkscape:persp3d"
       inkscape:vp_x="0 : 526.18109 : 1"
       inkscape:vp_y="0 : 1000 : 0"
       inkscape:vp_z="744.09448 : 526.18109 : 1"
       inkscape:persp3d-origin="372.04724 : 350.78739 : 1"
       id="perspective3610" />
  </defs>
  <sodipodi:namedview
     id="base"
     pagecolor="#ffffff"
     bordercolor="#666666"
     borderopacity="1.0"
     gridtolerance="10000"
     guidetolerance="10"
     objecttolerance="10"
     inkscape:pageopacity="0.0"
     inkscape:pageshadow="2"
     inkscape:zoom="0.35"
     inkscape:cx="375"
     inkscape:cy="520"
     inkscape:document-units="px"
     inkscape:current-layer="layer1"
     showgrid="false"
     inkscape:window-width="598"
     inkscape:window-height="672"
     inkscape:window-x="0"
     inkscape:window-y="16" />
  <metadata
     id="metadata3607">
    <rdf:RDF>
      <cc:Work
         rdf:about="">
        <dc:format>image/svg+xml</dc:format>
        <dc:type
           rdf:resource="http://purl.org/dc/dcmitype/StillImage" />
      </cc:Work>
    </rdf:RDF>
  </metadata>
  <g
     inkscape:label="Layer 1"
     inkscape:groupmode="layer"
     id="layer1">
    <g
       id="Shape_29"
       transform="matrix(1.883334,0,0,1.883334,-0.3015071,-441.35307)">
      <g
         id="g1457">
        <path
           id="path1459"
           style="fill-rule:evenodd"
           d="M 194.476,492.24 C 193.814,488.152 192.126,484.064 192.126,484.064 C 192.126,484.064 192.713,484.088 193.35,484.088 C 193.986,484.088 194.255,483.622 194.304,483.304 C 194.353,482.987 194.451,481.908 194.499,481.37 C 194.548,480.831 194.157,480.61 193.717,480.562 C 193.277,480.512 191.637,480.489 191.637,480.489 C 191.637,480.489 191.074,479.093 190.683,478.53 C 190.291,477.967 189.68,477.404 189.68,477.404 C 189.68,477.404 189.435,476.915 189.411,476.792 C 189.386,476.67 189.337,476.67 189.386,476.571 C 189.435,476.473 189.656,476.351 189.607,476.229 C 189.558,476.106 189.118,475.911 189.02,475.862 C 188.921,475.813 188.579,474.931 188.334,474.369 C 188.089,473.806 187.526,472.655 187.478,472.483 C 187.429,472.312 187.527,471.798 187.6,471.675 C 187.674,471.553 187.699,471.454 187.624,471.357 C 187.552,471.259 187.38,471.284 187.282,471.407 C 187.183,471.529 187.037,471.7 187.037,471.7 C 187.037,471.7 186.182,471.039 185.716,471.015 C 185.251,470.99 180.7,470.99 179.624,471.015 C 178.548,471.038 178.499,471.015 177.984,471.137 C 177.47,471.259 177.104,471.7 177.104,471.7 L 176.859,471.627 C 176.859,471.627 176.498,471.279 175.806,471.529 C 175.31,471.709 173.923,472.262 173.777,472.655 C 173.602,473.119 173.915,473.487 173.915,473.487 C 173.915,473.487 173.793,473.545 173.695,473.691 C 173.597,473.838 173.678,473.961 173.678,473.961 C 173.678,473.961 173.996,474.214 174.411,474.287 C 174.827,474.36 175.146,474.223 175.146,474.223 L 175.953,475.34 L 176.099,479.387 C 176.099,479.387 175.609,479.497 175.488,479.828 C 175.382,480.12 175.75,480.366 175.75,480.366 C 175.75,480.366 172.768,482.455 171.06,486.707 C 169.463,490.684 169.519,494.565 169.519,494.565 C 169.519,494.565 169.103,494.883 169.103,495.715 C 169.103,496.67 169.617,497.037 169.617,497.037 C 169.617,497.037 170.406,500.7 172.161,503.671 C 173.698,506.272 175.978,508.127 175.978,508.127 C 175.978,508.127 175.933,508.198 175.938,508.379 C 175.941,508.56 176.002,508.641 176.002,508.641 C 176.002,508.641 175.806,508.813 175.586,509.033 C 175.366,509.254 175.074,509.717 175.44,510.209 C 175.938,510.879 178.253,511.461 180.724,511.457 C 183.319,511.452 184.859,511.041 185.74,510.502 C 186.489,510.044 186.575,509.436 186.377,509.082 C 186.189,508.747 185.618,508.495 185.618,508.495 C 185.618,508.495 185.72,508.292 185.764,508.143 C 185.813,507.98 185.813,507.785 185.813,507.785 C 185.813,507.785 188.015,505.924 189.606,502.669 C 191.101,499.607 191.417,496.694 191.417,496.694 C 191.417,496.694 191.637,496.523 191.832,496.23 C 192.028,495.936 192.077,495.618 192.004,494.932 C 191.931,494.246 191.539,494.099 191.539,494.099 C 191.539,494.099 191.343,491.995 191.05,490.452 C 190.756,488.91 189.974,487.147 189.974,487.147 L 190.218,486.878 C 190.218,486.878 191.564,489.447 192.176,493.145 C 192.578,495.58 193.08,499.093 193.056,501.787 C 193.036,503.917 192.91,506.193 192.836,506.83 C 192.762,507.467 193.105,507.614 193.227,507.687 C 193.35,507.76 193.449,507.711 193.449,507.858 C 193.449,508.005 193.302,509.13 193.056,509.962 C 192.927,510.401 192.861,510.6 192.885,510.77 C 192.909,510.942 192.836,511.089 193.031,511.041 C 193.226,510.991 193.594,510.845 193.79,510.625 C 193.985,510.404 194.419,509.888 194.671,509.058 C 195.087,507.688 195.258,504.847 195.307,502.008 C 195.354,499.312 195.136,496.329 194.476,492.24 z M 185.871,481.183 L 187.119,481.118 L 187.363,481.461 L 185.871,481.183 z M 189.459,485.973 C 189.459,485.973 188.718,484.651 188.179,483.843 C 187.641,483.034 186.589,481.908 186.589,481.908 L 187.764,482.179 C 187.764,482.179 188.302,483.06 188.765,483.935 C 189.236,484.827 189.663,485.711 189.663,485.711 L 189.459,485.973 z M 191.856,481.125 C 191.832,480.937 191.979,480.946 192.2,480.946 C 192.42,480.946 193.276,481.006 193.668,481.027 C 193.961,481.044 194.019,481.215 194.01,481.508 C 194.004,481.754 193.909,482.816 193.848,483.205 C 193.798,483.516 193.676,483.621 193.301,483.621 C 193.007,483.621 191.923,483.531 191.923,483.531 C 191.923,483.531 191.996,482.773 191.996,482.283 C 191.996,481.793 191.893,481.394 191.856,481.125 z" />
      </g>
    </g>
  </g>
</svg>
